<svg width="211" height="229" viewBox="0 0 211 229" fill="none" xmlns="http://www.w3.org/2000/svg">
<g filter="url(#filter0_d_1831_6079)">
<path fill-rule="evenodd" clip-rule="evenodd" d="M126.779 16.4313C114.322 21.7683 96.3439 21.7683 83.8869 16.4313C73.7657 12.0951 62.4447 11.693 51.9987 16.2367C29.9501 25.8274 20.0632 53.858 29.6673 79.1396L29.6614 79.1422L45.3848 118.768L60.1515 176.982C61.7957 183.464 67.606 188 74.2642 188C81.415 188 87.508 182.785 88.6432 175.692L95.3414 133.841C96.1303 128.912 100.364 125.287 105.333 125.287C110.303 125.287 114.537 128.912 115.325 133.841L122.023 175.691C123.159 182.785 129.252 188 136.403 188C143.061 188 148.871 183.464 150.515 176.982L165.282 118.768L181.005 79.1422L180.999 79.1396C190.603 53.858 180.717 25.8274 158.668 16.2367C148.222 11.6929 136.901 12.0951 126.779 16.4313Z" fill="url(#paint0_linear_1831_6079)"/>
</g>
<path fill-rule="evenodd" clip-rule="evenodd" d="M107.881 20.3841C107.911 22.3492 107.176 24.3239 105.677 25.8234L98.8231 32.6771C95.8832 35.617 95.8832 40.3835 98.8231 43.3234L105.677 50.1771C108.617 53.117 108.617 57.8835 105.677 60.8234L98.8231 67.6771C95.8832 70.617 95.8832 75.3835 98.8231 78.3234L105.677 85.1771C108.617 88.117 108.617 92.8835 105.677 95.8234L98.8231 102.677C95.8832 105.617 95.8832 110.383 98.8231 113.323L106.02 120.52C107.451 121.951 108.19 123.823 108.224 125.709C107.305 125.434 106.334 125.287 105.333 125.287C100.364 125.287 96.1303 128.912 95.3414 133.841L88.6432 175.691C87.508 182.785 81.415 188 74.2642 188C67.606 188 61.7957 183.464 60.1515 176.982L45.3848 118.768L29.6614 79.1422L29.6673 79.1396C20.0632 53.858 29.9501 25.8274 51.9987 16.2367C62.4447 11.6929 73.7657 12.0951 83.8869 16.4313C90.8111 19.3978 99.4412 20.7154 107.881 20.3841ZM136.403 188C136.361 188 136.319 188 136.277 188H136.528C136.506 188 136.485 188 136.463 188C136.443 188 136.423 188 136.403 188Z" fill="url(#paint1_linear_1831_6079)"/>
<defs>
<filter id="filter0_d_1831_6079" x="0.0488968" y="1.20429" width="210.568" height="226.902" filterUnits="userSpaceOnUse" color-interpolation-filters="sRGB">
<feFlood flood-opacity="0" result="BackgroundImageFix"/>
<feColorMatrix in="SourceAlpha" type="matrix" values="0 0 0 0 0 0 0 0 0 0 0 0 0 0 0 0 0 0 127 0" result="hardAlpha"/>
<feOffset dy="14.1551"/>
<feGaussianBlur stdDeviation="12.9756"/>
<feColorMatrix type="matrix" values="0 0 0 0 0.148194 0 0 0 0 0.235583 0 0 0 0 0.585139 0 0 0 0.13 0"/>
<feBlend mode="normal" in2="BackgroundImageFix" result="effect1_dropShadow_1831_6079"/>
<feBlend mode="normal" in="SourceGraphic" in2="effect1_dropShadow_1831_6079" result="shape"/>
</filter>
<linearGradient id="paint0_linear_1831_6079" x1="47" y1="13.0002" x2="217.922" y2="328.019" gradientUnits="userSpaceOnUse">
<stop offset="0.215" stop-color="#FDFDFF"/>
<stop offset="1" stop-color="#D6DBF1"/>
</linearGradient>
<linearGradient id="paint1_linear_1831_6079" x1="54.2253" y1="13.0002" x2="134.139" y2="201.62" gradientUnits="userSpaceOnUse">
<stop stop-color="#F7F5EF"/>
<stop offset="1" stop-color="#D0A768"/>
</linearGradient>
</defs>
</svg>
