<svg width="200" height="200" viewBox="0 0 200 200" fill="none" xmlns="http://www.w3.org/2000/svg">
<g clip-path="url(#clip0_923_9378)">
<g filter="url(#filter0_d_923_9378)">
<path fill-rule="evenodd" clip-rule="evenodd" d="M120.78 15.9311C108.323 21.2681 90.3448 21.268 77.8879 15.9311C67.7667 11.5948 56.4457 11.1927 45.9997 15.7365C23.9554 25.3253 14.0681 53.3468 23.6626 78.6246C23.6648 78.6302 23.6647 78.6364 23.6623 78.6419L26.6565 85.1525C36.7776 107.16 44.4066 130.231 49.4012 153.934L54.1525 176.482C55.7967 182.964 61.607 187.5 68.2651 187.5C75.416 187.5 81.5089 182.284 82.6442 175.191L89.3424 133.341C90.1312 128.412 94.3653 124.787 99.3344 124.787C104.304 124.787 108.538 128.412 109.326 133.341L116.024 175.191C117.16 182.284 123.253 187.5 130.404 187.5C137.062 187.5 142.872 182.964 144.516 176.482L149.267 153.934C154.262 130.231 161.891 107.16 172.012 85.1524L175.006 78.6419C175.004 78.6364 175.004 78.6302 175.006 78.6246C184.601 53.3468 174.713 25.3253 152.669 15.7365C142.223 11.1927 130.902 11.5948 120.78 15.9311Z" fill="url(#paint0_linear_923_9378)"/>
</g>
<mask id="mask0_923_9378" style="mask-type:alpha" maskUnits="userSpaceOnUse" x="20" y="12" width="159" height="176">
<path fill-rule="evenodd" clip-rule="evenodd" d="M120.779 15.9311C108.322 21.2681 90.3439 21.268 77.8869 15.9311C67.7657 11.5948 56.4447 11.1927 45.9987 15.7365C23.9544 25.3253 14.0671 53.3468 23.6617 78.6246C23.6638 78.6302 23.6637 78.6364 23.6614 78.6419L26.6555 85.1525C36.7767 107.16 44.4056 130.231 49.4002 153.934L54.1515 176.482C55.7957 182.964 61.606 187.5 68.2642 187.5C75.415 187.5 81.508 182.284 82.6432 175.191L89.3414 133.341C90.1303 128.412 94.3643 124.787 99.3334 124.787C104.303 124.787 108.537 128.412 109.325 133.341L116.023 175.191C117.159 182.284 123.252 187.5 130.403 187.5C137.061 187.5 142.871 182.964 144.515 176.482L149.266 153.934C154.261 130.231 161.89 107.16 172.011 85.1524L175.005 78.6419C175.003 78.6364 175.003 78.6302 175.005 78.6246C184.6 53.3468 174.712 25.3253 152.668 15.7365C142.222 11.1927 130.901 11.5948 120.779 15.9311Z" fill="url(#paint1_linear_923_9378)"/>
</mask>
<g mask="url(#mask0_923_9378)">
<path d="M75.0009 31.1942C75.0009 30.6525 74.5685 30.2126 74.0288 30.1659C65.6595 29.4431 59.0918 22.4204 59.0918 13.8636V11.1364C59.0918 3.60521 65.197 5 72.7282 5C76.6951 5 80.2663 6.69387 82.7582 9.39779C87.2438 5.12382 93.316 2.5 100.001 2.5C106.686 2.5 112.758 7.6238 117.244 11.8978C119.735 9.19386 123.307 7.5 127.274 7.5C134.805 7.5 140.91 13.6052 140.91 21.1364V23.8636C140.91 32.4204 134.342 39.4431 125.973 40.1659C125.433 40.2126 125.001 40.6525 125.001 41.1942V42.5C125.001 56.3071 113.808 67.5 100.001 67.5C86.1938 67.5 75.0009 56.3071 75.0009 42.5V31.1942Z" fill="url(#paint2_linear_923_9378)"/>
</g>
</g>
<defs>
<filter id="filter0_d_923_9378" x="-5.95013" y="0.704044" width="210.569" height="226.902" filterUnits="userSpaceOnUse" color-interpolation-filters="sRGB">
<feFlood flood-opacity="0" result="BackgroundImageFix"/>
<feColorMatrix in="SourceAlpha" type="matrix" values="0 0 0 0 0 0 0 0 0 0 0 0 0 0 0 0 0 0 127 0" result="hardAlpha"/>
<feOffset dy="14.1551"/>
<feGaussianBlur stdDeviation="12.9756"/>
<feColorMatrix type="matrix" values="0 0 0 0 0.148194 0 0 0 0 0.235583 0 0 0 0 0.585139 0 0 0 0.13 0"/>
<feBlend mode="normal" in2="BackgroundImageFix" result="effect1_dropShadow_923_9378"/>
<feBlend mode="normal" in="SourceGraphic" in2="effect1_dropShadow_923_9378" result="shape"/>
</filter>
<linearGradient id="paint0_linear_923_9378" x1="41.001" y1="12.5" x2="211.923" y2="327.519" gradientUnits="userSpaceOnUse">
<stop offset="0.215" stop-color="#FDFDFF"/>
<stop offset="1" stop-color="#D6DBF1"/>
</linearGradient>
<linearGradient id="paint1_linear_923_9378" x1="41" y1="12.5" x2="136.667" y2="180.5" gradientUnits="userSpaceOnUse">
<stop stop-color="#F0F6F9"/>
<stop offset="1" stop-color="#CDDFF2"/>
</linearGradient>
<linearGradient id="paint2_linear_923_9378" x1="134.092" y1="0.909094" x2="123.446" y2="161.554" gradientUnits="userSpaceOnUse">
<stop offset="0.101941" stop-color="#F7F9FF"/>
<stop offset="1" stop-color="#748CD2"/>
</linearGradient>
<clipPath id="clip0_923_9378">
<rect width="200" height="200" fill="white"/>
</clipPath>
</defs>
</svg>
